<svg width="16" height="16" viewBox="0 0 16 16" fill="none" xmlns="http://www.w3.org/2000/svg">
<path d="M0.823529 9H2.47059L3.29412 11.0588L2.26471 11.6765C2.70569 12.5706 3.42937 13.2943 4.32353 13.7353L4.94118 12.7059L7 13.5294V15.1765C7 15.3949 6.91324 15.6044 6.75879 15.7588C6.60435 15.9132 6.39488 16 6.17647 16C4.57029 15.9024 3.05536 15.2203 1.91752 14.0825C0.779678 12.9446 0.0976086 11.4297 0 9.82353C0 9.60512 0.0867644 9.39565 0.241206 9.24121C0.395648 9.08676 0.605116 9 0.823529 9Z" fill="#E0E0E0"/>
<path fill-rule="evenodd" clip-rule="evenodd" d="M5.7818 8.25047L5 10.5833L7.8265 9.98516C8.97767 10.541 10.318 10.7084 11.5983 10.4561C12.8785 10.2039 14.0116 9.54911 14.7868 8.61364C15.5621 7.67816 15.9267 6.5256 15.8129 5.37027C15.6991 4.21494 15.1147 3.13545 14.1683 2.33251C13.2218 1.52957 11.9778 1.05782 10.6675 1.00497C9.35718 0.95213 8.06975 1.32179 7.04457 2.04521C6.01938 2.76864 5.32622 3.79661 5.09395 4.93798C4.86168 6.07936 5.10611 7.25647 5.7818 8.25047ZM10.3868 7.25L8.94338 4.75L7.5 7.25H10.3868ZM10.4167 4.75L11.86 7.25L13.3034 4.75L10.4167 4.75Z" fill="#E0E0E0"/>
</svg>
